<svg width="19" height="23" viewBox="0 0 19 23" fill="none" xmlns="http://www.w3.org/2000/svg">
<path d="M2.60431 0.25V3.77536H4.44729V0.25H2.60431ZM13.2285 0.25V3.77536H15.0687V0.25H13.2285ZM-1.16211 1.9444V6.87989H18.8379V1.9444H16.3864V5.09725H11.9108V1.9444H5.76227V5.09725H1.28935V1.9444H-1.16211ZM-1.16211 8.17578V22.75H18.8379V8.17576L-1.16211 8.17578ZM6.69437 11.5432C7.71243 11.5533 8.67587 12.0446 9.05891 12.9589C9.23905 13.5051 9.33496 14.0873 9.11069 14.5957C8.82993 15.1823 8.26075 15.4876 7.70233 15.6844C8.75034 15.9591 9.44007 16.6212 9.44635 17.6965C9.42946 18.4341 9.08582 19.0875 8.56694 19.5145C8.01523 19.9527 7.34813 20.1974 6.69437 20.2019C4.85075 20.2019 3.92852 19.3669 3.92852 17.6965H5.55604C5.59063 18.3998 5.92163 18.9346 6.60284 18.9441C7.46881 18.8848 7.81171 18.3132 7.81884 17.5813C7.81844 17.1393 7.6578 16.6862 7.27511 16.5159C6.78143 16.3098 6.23031 16.3343 5.7493 16.3338V15.0621C6.53559 15.0785 7.61571 14.9392 7.62373 13.9975C7.59316 13.3048 7.31095 12.8106 6.64166 12.8019C5.92874 12.8451 5.53751 13.2522 5.53015 13.8953H3.92852C3.96329 12.2739 5.28915 11.5504 6.69437 11.5432ZM12.3121 11.7002H13.7464V20.0477H12.1947V13.3351C11.6002 13.8458 10.9422 14.2094 10.2185 14.4257V12.9979C11.0628 12.669 11.7607 12.2368 12.3121 11.7002Z" fill="white"/>
</svg>
