<svg width="25" height="25" viewBox="0 0 25 25" fill="none" xmlns="http://www.w3.org/2000/svg">
<path d="M14.0621 7.81259L17.1871 10.9376L10.9371 17.1876L7.81213 14.0626L14.0621 7.81259ZM24.4512 7.26416L22.6559 5.46884L21.8746 6.25009C21.6705 6.45994 21.4267 6.62713 21.1574 6.74195C20.8881 6.85676 20.5987 6.91691 20.3059 6.91889C20.0132 6.92088 19.7229 6.86466 19.4521 6.75352C19.1813 6.64237 18.9352 6.4785 18.7283 6.27144C18.5213 6.06438 18.3576 5.81825 18.2466 5.54736C18.1355 5.27647 18.0795 4.98622 18.0816 4.69347C18.0837 4.40073 18.144 4.11132 18.259 3.84208C18.3739 3.57283 18.5412 3.32912 18.7512 3.12509L19.5324 2.34384L17.7371 0.548532C17.3835 0.197116 16.9052 -0.00012207 16.4067 -0.00012207C15.9081 -0.00012207 15.4298 0.197116 15.0762 0.548532L0.54963 15.0751C0.198215 15.4287 0.000976563 15.907 0.000976562 16.4056C0.000976562 16.9041 0.198215 17.3824 0.54963 17.736L2.34494 19.5313L3.12463 18.7517C3.32865 18.5417 3.57237 18.3744 3.84161 18.2594C4.11086 18.1445 4.40026 18.0842 4.69301 18.0821C4.98576 18.0799 5.27601 18.136 5.5469 18.247C5.81779 18.358 6.06392 18.5218 6.27098 18.7287C6.47804 18.9357 6.6419 19.1817 6.75305 19.4526C6.8642 19.7234 6.92041 20.0136 6.91843 20.3064C6.91644 20.5991 6.85629 20.8886 6.74148 21.1579C6.62667 21.4272 6.45948 21.671 6.24963 21.8751L5.46838 22.6563L7.26369 24.4517C7.61732 24.8031 8.09562 25.0003 8.59416 25.0003C9.0927 25.0003 9.571 24.8031 9.92463 24.4517L24.4512 9.92509C24.8026 9.57147 24.9998 9.09317 24.9998 8.59463C24.9998 8.09608 24.8026 7.61778 24.4512 7.26416ZM10.9371 20.3126L4.68713 14.0626L14.0621 4.68759L20.3121 10.9376L10.9371 20.3126Z" fill="white"/>
</svg>
