<svg width="100" height="90" viewBox="0 0 100 90" fill="none" xmlns="http://www.w3.org/2000/svg">
<path d="M1.7246 0C0.77289 0 0 0.7692 0 1.7227V77.5857C0 78.5397 0.77289 79.3087 1.7246 79.3087H46.5506C47.5026 79.3087 48.2746 78.5397 48.2746 77.5857C48.2746 76.6327 47.5026 75.8617 46.5506 75.8617H3.4486L3.4488 3.4477L96.5508 3.4472V46.5512C96.5508 47.5042 97.3238 48.2762 98.2748 48.2762C99.2268 48.2762 99.9998 47.5042 99.9998 46.5512V1.7232C99.9998 0.7696 99.2268 0.000400066 98.2748 0.000400066H1.7248L1.7246 0ZM27.5856 10.344C22.2906 10.344 17.9856 14.651 17.9856 19.946C17.9856 25.239 22.2906 29.545 27.5856 29.545C32.8806 29.545 37.1876 25.24 37.1876 19.946C37.1876 14.651 32.8806 10.344 27.5856 10.344ZM68.8846 20.692C68.4276 20.712 67.9976 20.914 67.6886 21.252L50.8046 39.746L42.6246 31.569C41.9796 30.927 40.9496 30.894 40.2676 31.492L10.9316 57.324C10.2176 57.954 10.1436 59.043 10.7746 59.758C11.1146 60.146 11.5906 60.344 12.0676 60.344C12.4716 60.344 12.8786 60.204 13.2066 59.916L41.3316 35.153L53.9526 47.77C54.6266 48.444 55.7146 48.444 56.3886 47.77C57.0626 47.096 57.0626 46.006 56.3886 45.332L53.2416 42.188L69.0736 24.852L88.4856 42.651C89.1896 43.294 90.2806 43.245 90.9236 42.543C91.5666 41.841 91.5196 40.753 90.8156 40.11L70.1266 21.143C69.7886 20.834 69.3466 20.662 68.8846 20.692ZM56.8956 55.172V89.655H72.4136V67.955L65.0116 75.356L62.5736 72.918L74.1386 61.354L85.7006 72.918L83.2636 75.356L75.8606 67.955V89.655H91.3786V55.172H56.8956Z" fill="#F6F6F6"/>
</svg>
